<svg width="1024" height="1024" viewBox="0 0 1024 1024" fill="none" xmlns="http://www.w3.org/2000/svg">
<path d="M483.914 19.8148C493.653 -6.12685 530.347 -6.12684 540.086 19.8148L661.971 344.487C665.013 352.592 671.408 358.987 679.513 362.029L1004.19 483.914C1030.13 493.653 1030.13 530.347 1004.19 540.086L679.513 661.971C671.408 665.013 665.013 671.408 661.971 679.513L540.086 1004.19C530.347 1030.13 493.653 1030.13 483.914 1004.19L362.029 679.513C358.987 671.408 352.592 665.013 344.487 661.971L19.8148 540.086C-6.12685 530.347 -6.12684 493.653 19.8148 483.914L344.487 362.029C352.592 358.987 358.987 352.592 362.029 344.487L483.914 19.8148Z" fill="#D9D9D9"/>
</svg>
